# Blender v2.93.4 OBJ File: 'tv.blend'
# www.blender.org
mtllib tv.mtl
o Cube
v 0.003949 -2.067902 -1.254126
v 0.003949 -2.067902 1.254126
v -0.171142 2.067902 -3.762377
v -0.171142 -2.067902 3.762377
v -0.262637 2.067902 -3.762377
v -0.262637 -2.067902 -3.762377
v -0.262637 2.067902 3.762377
v -0.262637 -2.067902 3.762377
v -0.262637 -2.067902 -3.563762
v -0.262637 -2.067902 3.503627
v 0.003949 2.067902 3.503627
v -0.087546 -2.067902 -3.762377
v 0.003949 2.067902 -1.254126
v -0.171142 2.067902 3.762377
v -0.262637 -1.695576 3.762377
v -0.262637 1.898624 3.762377
v 0.003949 -0.689301 3.762377
v 0.003949 0.689301 3.762377
v -0.262637 1.898624 -3.762377
v -0.262637 -1.695576 -3.762377
v 0.003949 -0.689301 -3.762377
v -0.087546 2.067902 3.762377
v 0.003949 0.689301 -3.762377
v -0.171142 -2.067902 -3.762377
v -0.087546 -2.067902 3.762377
v 0.003949 -2.067902 3.762377
v -0.262637 2.067902 3.503627
v -0.262637 2.067902 -3.563762
v -0.087546 2.067902 -3.762377
v 0.003949 2.067902 3.762377
v 0.003949 -2.067902 -3.762377
v 0.003949 2.067902 -3.762377
v -0.087546 -0.689301 -3.762377
v -0.219196 2.067902 3.503627
v -0.087546 0.689301 -3.762377
v -0.219196 2.067902 -1.254126
v -0.219196 0.689301 3.762377
v -0.219196 -0.689301 3.762377
v -0.219196 -2.067902 1.254126
v -0.219196 -2.067902 -1.254126
v -0.087546 -2.067902 -1.254126
v -0.087546 -2.067902 1.254126
v -0.219196 0.689301 -3.762377
v -0.219196 -0.689301 -3.762377
v -0.262637 -1.695576 3.503627
v -0.262637 -1.695576 -3.563762
v -0.262637 1.898624 3.503627
v -0.262637 1.898624 -3.563762
v -0.219196 2.067902 -3.762377
v -0.087546 -0.689301 3.762377
v -0.219196 -2.067902 3.762377
v -0.087546 0.689301 3.762377
v -0.219196 2.067902 3.762377
v -0.219196 -2.067902 -3.762377
v -0.087546 2.067902 -1.254126
v -0.087546 2.067902 3.503627
v -0.201100 -1.695576 3.503627
v -0.201100 -1.695576 -3.563762
v -0.201100 1.898624 3.503627
v -0.201100 1.898624 -3.563762
v -0.039492 -2.067902 -3.762377
v -0.214584 -2.067902 -3.762377
v -0.039492 2.067902 3.762377
v -0.214584 2.067902 3.762377
v -0.214584 -2.067902 3.762377
v -0.039492 -2.067902 3.762377
v -0.214584 2.067902 -3.762377
v -0.039492 2.067902 -3.762377
v -0.214584 -0.689301 -3.762377
v -0.039492 -0.689301 -3.762377
v -0.214584 0.689301 -3.762377
v -0.039492 0.689301 -3.762377
v -0.214584 -2.067902 -1.254126
v -0.214584 -2.067902 1.254126
v -0.039492 -2.067902 -1.254126
v -0.039492 -2.067902 1.254126
v -0.039492 -0.689301 3.762377
v -0.214584 -0.689301 3.762377
v -0.039492 0.689301 3.762377
v -0.214584 0.689301 3.762377
v -0.039492 2.067902 -1.254126
v -0.039492 2.067902 3.503627
v -0.214584 2.067902 -1.254126
v -0.214584 2.067902 3.503627
v -0.171142 -0.689301 -3.762377
v -0.171142 0.689301 -3.762377
v 0.003949 -0.689301 -1.254126
v 0.003949 -0.689301 1.254126
v 0.003949 0.689301 -1.254126
v 0.003949 0.689301 1.254126
v -0.171142 -2.067902 -1.254126
v -0.171142 -2.067902 1.254126
v -0.171142 -0.689301 3.762377
v -0.171142 0.689301 3.762377
v -0.171142 2.067902 -1.254126
v -0.171142 2.067902 3.503627
v -0.003122 -2.060831 -1.254126
v -0.003122 -2.060831 1.254126
v -0.170744 2.063089 -3.753621
v -0.171142 -2.067902 3.772377
v -0.256863 2.062128 -3.756603
v -0.256863 -2.062128 -3.756603
v -0.256863 2.062128 3.756603
v -0.256863 -2.062128 3.756603
v -0.255566 -2.060831 -3.563762
v -0.255566 -2.060831 3.503627
v -0.003122 2.060831 3.503627
v -0.087546 -2.060831 -3.755306
v -0.003122 2.060831 -1.254126
v -0.170744 2.063089 3.753621
v -0.255566 -1.695576 3.755306
v -0.255566 1.898624 3.755306
v -0.003122 -0.689301 3.755306
v -0.003122 0.689301 3.755306
v -0.255566 1.898624 -3.755306
v -0.255566 -1.695576 -3.755306
v -0.003122 -0.689301 -3.755306
v -0.087546 2.060831 3.755306
v -0.003122 0.689301 -3.755306
v -0.170744 -2.063089 -3.753621
v -0.087546 -2.060831 3.755306
v -0.001825 -2.062128 3.756603
v -0.255566 2.060831 3.503627
v -0.255566 2.060831 -3.563762
v -0.087546 2.060831 -3.755306
v -0.001825 2.062128 3.756603
v -0.001825 -2.062128 -3.756603
v -0.001825 2.062128 -3.756603
v -0.087546 -0.689301 -3.752377
v -0.219196 2.057902 3.503627
v -0.087546 0.689301 -3.752377
v -0.219196 2.057902 -1.254126
v -0.219196 0.689301 3.752377
v -0.219196 -0.689301 3.752377
v -0.219196 -2.057902 1.254126
v -0.219196 -2.057902 -1.254126
v -0.087546 -2.057902 -1.254126
v -0.087546 -2.057902 1.254126
v -0.219196 0.689301 -3.752377
v -0.219196 -0.689301 -3.752377
v -0.253592 -1.698591 3.506642
v -0.253592 -1.698591 -3.566777
v -0.253592 1.901639 3.506642
v -0.253592 1.901639 -3.566777
v -0.219196 2.060831 -3.755306
v -0.087546 -0.689301 3.752377
v -0.219196 -2.060831 3.755306
v -0.087546 0.689301 3.752377
v -0.219196 2.060831 3.755306
v -0.219196 -2.060831 -3.755306
v -0.087546 2.057902 -1.254126
v -0.087546 2.057902 3.503627
v -0.201100 -1.702646 3.510698
v -0.201100 -1.702646 -3.570832
v -0.201100 1.905695 3.510698
v -0.201100 1.905695 -3.570832
v -0.039492 -2.077902 -3.762377
v -0.214584 -2.077902 -3.762377
v -0.039401 2.063085 3.753614
v -0.214085 2.063091 3.753625
v -0.214584 -2.077902 3.762377
v -0.039492 -2.077902 3.762377
v -0.214584 2.077902 -3.762377
v -0.039492 2.077902 -3.762377
v -0.214024 -0.687502 -3.752557
v -0.039389 -0.687499 -3.752542
v -0.214024 0.687501 -3.752557
v -0.039389 0.687499 -3.752542
v -0.214584 -2.077902 -1.254126
v -0.214584 -2.077902 1.254126
v -0.039492 -2.077902 -1.254126
v -0.039492 -2.077902 1.254126
v -0.039492 -0.689301 3.772377
v -0.214584 -0.689301 3.772377
v -0.039492 0.689301 3.772377
v -0.214584 0.689301 3.772377
v -0.039492 2.077902 -1.254126
v -0.039395 2.062819 3.495016
v -0.214584 2.077902 -1.254126
v -0.214057 2.062826 3.495028
v -0.170695 -0.687500 -3.752551
v -0.170695 0.687500 -3.752551
v -0.006051 -0.689301 -1.254126
v -0.006051 -0.689301 1.254126
v -0.006051 0.689301 -1.254126
v -0.006051 0.689301 1.254126
v -0.171142 -2.077902 -1.254126
v -0.171142 -2.077902 1.254126
v -0.171142 -0.689301 3.772377
v -0.171142 0.689301 3.772377
v -0.170437 2.059373 -1.248953
v -0.170722 2.062824 3.495023
vt 0.791667 0.741403
vt 0.875000 0.741403
vt 0.875000 0.750000
vt 0.791667 0.750000
vt 0.541667 0.916667
vt 0.625000 0.916667
vt 0.625000 1.000000
vt 0.614768 1.000000
vt 0.614768 0.243401
vt 0.625000 0.243401
vt 0.625000 0.250000
vt 0.614768 0.250000
vt 0.625000 0.583333
vt 0.708333 0.583333
vt 0.708333 0.741403
vt 0.625000 0.741403
vt 0.625000 0.500000
vt 0.708333 0.500000
vt 0.708333 0.750000
vt 0.625000 0.750000
vt 0.541667 0.750000
vt 0.625000 0.833333
vt 0.541667 0.833333
vt 0.458333 0.750000
vt 0.458333 0.833333
vt 0.375000 0.250000
vt 0.397506 0.250000
vt 0.458333 0.333333
vt 0.375000 0.333333
vt 0.375000 0.750000
vt 0.375000 0.833333
vt 0.541667 0.333333
vt 0.291667 0.583333
vt 0.375000 0.583333
vt 0.375000 0.666667
vt 0.291667 0.666667
vt 0.625000 0.333333
vt 0.291667 0.500000
vt 0.375000 0.500000
vt 0.541667 0.583333
vt 0.541667 0.666667
vt 0.541667 0.500000
vt 0.458333 0.583333
vt 0.458333 0.666667
vt 0.458333 0.500000
vt 0.125000 0.741403
vt 0.208333 0.666667
vt 0.208333 0.750000
vt 0.125000 0.750000
vt 0.458333 0.416667
vt 0.541667 0.416667
vt 0.125000 0.500000
vt 0.208333 0.500000
vt 0.208333 0.583333
vt 0.125000 0.506599
vt 0.375000 0.416667
vt 0.625000 0.416667
vt 0.291667 0.750000
vt 0.375000 0.243401
vt 0.397506 0.243401
vt 0.375000 0.000000
vt 0.397506 0.000000
vt 0.397506 0.008597
vt 0.375000 0.008597
vt 0.614767 0.000000
vt 0.614768 0.008597
vt 0.614768 0.008597
vt 0.397506 0.008597
vt 0.625000 0.000000
vt 0.625000 0.008597
vt 0.375000 0.916667
vt 0.458333 0.916667
vt 0.397506 1.000000
vt 0.375000 1.000000
vt 0.791667 0.583333
vt 0.791667 0.741403
vt 0.791667 0.583333
vt 0.208333 0.666667
vt 0.208333 0.750000
vt 0.625000 0.333333
vt 0.541667 0.333333
vt 0.791667 0.500000
vt 0.791667 0.500000
vt 0.458333 0.333333
vt 0.375000 0.333333
vt 0.458333 0.916667
vt 0.541667 0.916667
vt 0.208333 0.583333
vt 0.791667 0.750000
vt 0.208333 0.500000
vt 0.625000 0.916667
vt 0.375000 0.916667
vt 0.875000 0.500000
vt 0.875000 0.506599
vt 0.397506 0.243401
vt 0.614768 0.243401
vt 0.541667 0.833333
vt 0.458333 0.833333
vt 0.791667 0.741403
vt 0.791667 0.750000
vt 0.208333 0.666667
vt 0.208333 0.583333
vt 0.458333 0.416667
vt 0.541667 0.416667
vt 0.708333 0.583333
vt 0.708333 0.741403
vt 0.375000 0.416667
vt 0.625000 0.416667
vt 0.458333 0.916667
vt 0.375000 0.916667
vt 0.208333 0.500000
vt 0.375000 0.833333
vt 0.541667 0.333333
vt 0.625000 0.333333
vt 0.708333 0.500000
vt 0.208333 0.750000
vt 0.708333 0.750000
vt 0.291667 0.666667
vt 0.291667 0.750000
vt 0.291667 0.500000
vt 0.291667 0.583333
vt 0.458333 0.333333
vt 0.625000 0.916667
vt 0.541667 0.916667
vt 0.625000 0.833333
vt 0.375000 0.333333
vt 0.791667 0.583333
vt 0.791667 0.500000
vt 0.791667 0.741403
vt 0.791667 0.750000
vt 0.875000 0.750000
vt 0.875000 0.741403
vt 0.541667 0.916667
vt 0.614768 1.000000
vt 0.625000 1.000000
vt 0.625000 0.916667
vt 0.614768 0.243401
vt 0.614768 0.250000
vt 0.625000 0.250000
vt 0.625000 0.243401
vt 0.625000 0.583333
vt 0.625000 0.741403
vt 0.708333 0.741403
vt 0.708333 0.583333
vt 0.625000 0.500000
vt 0.708333 0.500000
vt 0.625000 0.750000
vt 0.708333 0.750000
vt 0.541667 0.750000
vt 0.541667 0.833333
vt 0.625000 0.833333
vt 0.458333 0.750000
vt 0.458333 0.833333
vt 0.375000 0.250000
vt 0.375000 0.333333
vt 0.458333 0.333333
vt 0.397506 0.250000
vt 0.375000 0.750000
vt 0.375000 0.833333
vt 0.541667 0.333333
vt 0.291667 0.583333
vt 0.291667 0.666667
vt 0.375000 0.666667
vt 0.375000 0.583333
vt 0.625000 0.333333
vt 0.291667 0.500000
vt 0.375000 0.500000
vt 0.541667 0.583333
vt 0.541667 0.666667
vt 0.541667 0.500000
vt 0.458333 0.583333
vt 0.458333 0.666667
vt 0.458333 0.500000
vt 0.125000 0.741403
vt 0.125000 0.750000
vt 0.208333 0.750000
vt 0.208333 0.666667
vt 0.458333 0.416667
vt 0.541667 0.416667
vt 0.125000 0.500000
vt 0.125000 0.506599
vt 0.208333 0.583333
vt 0.208333 0.500000
vt 0.375000 0.416667
vt 0.625000 0.416667
vt 0.291667 0.750000
vt 0.375000 0.243401
vt 0.397506 0.243401
vt 0.375000 0.000000
vt 0.375000 0.008597
vt 0.397506 0.008597
vt 0.397506 0.000000
vt 0.614768 0.008597
vt 0.614767 0.000000
vt 0.397506 0.008597
vt 0.614768 0.008597
vt 0.625000 0.008597
vt 0.625000 0.000000
vt 0.375000 0.916667
vt 0.375000 1.000000
vt 0.397506 1.000000
vt 0.458333 0.916667
vt 0.791667 0.583333
vt 0.791667 0.583333
vt 0.791667 0.741403
vt 0.208333 0.750000
vt 0.208333 0.666667
vt 0.541667 0.333333
vt 0.625000 0.333333
vt 0.791667 0.500000
vt 0.791667 0.500000
vt 0.375000 0.333333
vt 0.458333 0.333333
vt 0.541667 0.916667
vt 0.458333 0.916667
vt 0.208333 0.583333
vt 0.791667 0.750000
vt 0.208333 0.500000
vt 0.625000 0.916667
vt 0.375000 0.916667
vt 0.875000 0.506599
vt 0.875000 0.500000
vt 0.397506 0.243401
vt 0.614768 0.243401
vt 0.541667 0.833333
vt 0.458333 0.833333
vt 0.791667 0.750000
vt 0.791667 0.741403
vt 0.208333 0.583333
vt 0.208333 0.666667
vt 0.458333 0.416667
vt 0.541667 0.416667
vt 0.708333 0.583333
vt 0.708333 0.741403
vt 0.375000 0.416667
vt 0.625000 0.416667
vt 0.375000 0.916667
vt 0.458333 0.916667
vt 0.208333 0.500000
vt 0.375000 0.833333
vt 0.625000 0.333333
vt 0.541667 0.333333
vt 0.708333 0.500000
vt 0.208333 0.750000
vt 0.708333 0.750000
vt 0.291667 0.750000
vt 0.291667 0.666667
vt 0.291667 0.583333
vt 0.291667 0.500000
vt 0.458333 0.333333
vt 0.541667 0.916667
vt 0.625000 0.916667
vt 0.625000 0.833333
vt 0.375000 0.333333
vt 0.791667 0.583333
vt 0.791667 0.500000
vn 0.0000 1.0000 0.0000
vn -0.0000 0.0000 1.0000
vn -1.0000 0.0000 0.0000
vn 0.0000 0.0000 -1.0000
vn 0.0000 -1.0000 0.0000
vn 1.0000 -0.0000 0.0000
vn -0.0125 -0.9999 0.0083
vn -0.0027 0.0028 -1.0000
vn 0.9999 0.0102 -0.0086
vn -0.0016 -1.0000 0.0004
vn 0.0015 -1.0000 -0.0010
vn -0.0089 -1.0000 0.0031
vn -0.0418 -0.0063 -0.9991
vn -0.1011 0.0000 -0.9949
vn -0.0053 -0.0024 1.0000
vn -0.0969 -0.0005 -0.9953
vn -0.0174 0.0000 0.9998
vn -0.1011 0.9949 0.0000
vn -0.0027 0.0028 1.0000
vn -0.0534 0.9986 0.0027
vn -1.0000 0.0021 0.0000
vn -1.0000 0.0015 -0.0008
vn -1.0000 0.0000 -0.0012
vn -1.0000 -0.0021 0.0000
vn -1.0000 -0.0015 -0.0008
vn -1.0000 0.0000 0.0012
vn -1.0000 -0.0015 0.0008
vn -0.0023 1.0000 0.0015
vn 0.0164 0.0000 0.9999
vn -0.0018 1.0000 -0.0016
vn -0.0174 0.9998 0.0000
vn 0.0170 -0.0009 0.9999
vn 0.0170 0.0009 0.9999
vn -1.0000 0.0003 0.0015
vn -0.0676 0.9977 -0.0017
vn 1.0000 -0.0045 -0.0086
vn 0.9999 0.0000 -0.0105
vn 1.0000 -0.0045 0.0065
vn 1.0000 -0.0054 0.0000
vn 1.0000 0.0000 0.0079
vn -0.0770 0.0000 0.9970
vn 0.9999 0.0102 0.0066
vn 0.9999 0.0124 0.0000
vn -0.0053 -0.0024 -1.0000
vn -0.0174 0.0000 -0.9998
vn 0.0978 0.9952 0.0016
vn 0.1444 -0.9895 -0.0006
vn 0.0283 -0.0046 -0.9996
vn 0.1444 0.9895 0.0006
vn 0.0283 0.0046 -0.9996
vn 0.1555 0.0000 0.9878
vn 0.1555 -0.9878 0.0000
vn 0.0286 0.9996 -0.0063
vn 0.1444 -0.9895 0.0006
vn 0.0014 0.0000 -1.0000
vn 0.0721 0.0057 0.9974
vn 0.1061 -0.0025 0.9944
vn -0.0018 -1.0000 -0.0016
vn -0.0174 -0.9998 0.0000
vn -0.0770 -0.9970 0.0000
vn -0.0770 0.0000 -0.9970
vn -0.0770 0.9970 0.0000
vn 0.0000 -0.9999 0.0116
vn 0.0001 0.0000 -1.0000
vn -0.0704 0.9975 0.0012
vn -0.0000 -0.0071 1.0000
vn -0.0001 0.0000 1.0000
vn -0.0000 0.0071 1.0000
vn 0.0000 -0.0021 -1.0000
vn 0.0000 1.0000 -0.0012
vn 0.0378 -0.0036 0.9993
vn 0.0000 0.0021 1.0000
vn -0.1261 0.9920 0.0007
vn 0.0000 1.0000 0.0012
vn -0.0331 0.0039 -0.9994
vn 0.0000 1.0000 -0.0010
vn -0.0564 -0.9984 -0.0030
vn 0.0000 0.0072 -1.0000
vn 0.0000 0.0021 -1.0000
vn 0.0000 0.0137 0.9999
vn -0.0000 -0.0137 -0.9999
vn -0.0379 -0.9993 0.0020
vn -0.0000 -1.0000 0.0010
vn 0.0000 -0.0021 1.0000
vn -0.0000 -1.0000 -0.0032
vn 0.0000 -1.0000 -0.0012
vn -0.0331 -0.0039 -0.9994
usemtl Material.001
s off
f 56/1/1 27/2/1 7/3/1 22/4/1
f 52/5/2 22/6/2 7/7/2 16/8/2
f 48/9/3 28/10/3 5/11/3 19/12/3
f 13/13/1 95/14/1 96/15/1 11/16/1
f 32/17/1 3/18/1 95/14/1 13/13/1
f 11/16/1 96/15/1 14/19/1 30/20/1
f 18/21/2 30/20/2 14/22/2 94/23/2
f 17/24/2 18/21/2 94/23/2 93/25/2
f 6/26/4 20/27/4 33/28/4 12/29/4
f 26/30/2 17/24/2 93/25/2 4/31/2
f 20/27/4 19/12/4 35/32/4 33/28/4
f 91/33/5 1/34/5 2/35/5 92/36/5
f 19/12/4 5/11/4 29/37/4 35/32/4
f 24/38/5 31/39/5 1/34/5 91/33/5
f 89/40/6 13/13/6 11/16/6 90/41/6
f 23/42/6 32/17/6 13/13/6 89/40/6
f 87/43/6 89/40/6 90/41/6 88/44/6
f 21/45/6 23/42/6 89/40/6 87/43/6
f 1/34/6 87/43/6 88/44/6 2/35/6
f 31/39/6 21/45/6 87/43/6 1/34/6
f 88/44/6 90/41/6 18/21/6 17/24/6
f 2/35/6 88/44/6 17/24/6 26/30/6
f 10/46/5 42/47/5 25/48/5 8/49/5
f 85/50/4 86/51/4 23/42/4 21/45/4
f 6/52/5 12/53/5 41/54/5 9/55/5
f 9/55/5 41/54/5 42/47/5 10/46/5
f 24/56/4 85/50/4 21/45/4 31/39/4
f 86/51/4 3/57/4 32/17/4 23/42/4
f 90/41/6 11/16/6 30/20/6 18/21/6
f 92/36/5 2/35/5 26/30/5 4/58/5
f 9/59/3 46/60/3 20/27/3 6/26/3
f 46/60/3 48/9/3 19/12/3 20/27/3
f 8/61/3 15/62/3 45/63/3 10/64/3
f 10/64/3 45/63/3 46/60/3 9/59/3
f 15/62/3 16/65/3 47/66/3 45/63/3
f 45/63/4 47/66/4 59/67/4 57/68/4
f 16/65/3 7/69/3 27/70/3 47/66/3
f 47/66/3 27/70/3 28/10/3 48/9/3
f 25/71/2 50/72/2 15/73/2 8/74/2
f 50/72/2 52/5/2 16/8/2 15/73/2
f 55/75/5 56/1/5 84/76/5 83/77/5
f 25/48/1 42/47/1 74/78/1 65/79/1
f 35/32/2 29/37/2 67/80/2 71/81/2
f 29/82/5 55/75/5 83/77/5 67/83/5
f 12/29/2 33/28/2 69/84/2 62/85/2
f 52/5/4 50/72/4 78/86/4 80/87/4
f 42/47/1 41/54/1 73/88/1 74/78/1
f 56/1/5 22/4/5 64/89/5 84/76/5
f 41/54/1 12/53/1 62/90/1 73/88/1
f 33/28/2 35/32/2 71/81/2 69/84/2
f 22/6/4 52/5/4 80/87/4 64/91/4
f 50/72/4 25/71/4 65/92/4 78/86/4
f 29/82/1 5/93/1 28/94/1 55/75/1
f 55/75/1 28/94/1 27/2/1 56/1/1
f 46/60/1 45/63/1 57/68/1 58/95/1
f 48/9/2 46/60/2 58/95/2 60/96/2
f 47/66/5 48/9/5 60/96/5 59/67/5
f 79/97/4 77/98/4 93/25/4 94/23/4
f 22/4/1 56/1/1 34/99/1 53/100/1
f 41/54/5 42/47/5 39/101/5 40/102/5
f 70/103/2 72/104/2 86/51/2 85/50/2
f 81/105/5 82/106/5 96/15/5 95/14/5
f 62/85/4 69/84/4 70/103/4 61/107/4
f 69/84/4 71/81/4 72/104/4 70/103/4
f 71/81/4 67/80/4 68/108/4 72/104/4
f 25/71/2 50/72/2 38/109/2 51/110/2
f 12/53/5 41/54/5 40/102/5 54/111/5
f 77/98/4 66/112/4 4/31/4 93/25/4
f 29/37/4 35/32/4 43/113/4 49/114/4
f 68/115/5 81/105/5 95/14/5 3/18/5
f 42/47/5 25/48/5 51/116/5 39/101/5
f 61/107/2 70/103/2 85/50/2 24/56/2
f 82/106/5 63/117/5 14/19/5 96/15/5
f 74/78/5 76/118/5 66/119/5 65/79/5
f 62/90/5 61/120/5 75/121/5 73/88/5
f 73/88/5 75/121/5 76/118/5 74/78/5
f 76/118/1 75/121/1 91/33/1 92/36/1
f 35/32/4 33/28/4 44/122/4 43/113/4
f 75/121/1 61/120/1 24/38/1 91/33/1
f 66/112/2 77/98/2 78/86/2 65/92/2
f 52/5/2 22/6/2 53/123/2 37/124/2
f 77/98/2 79/97/2 80/87/2 78/86/2
f 63/125/4 79/97/4 94/23/4 14/22/4
f 79/97/2 63/125/2 64/91/2 80/87/2
f 66/119/1 76/118/1 92/36/1 4/58/1
f 82/106/1 84/76/1 64/89/1 63/117/1
f 33/28/4 12/29/4 54/126/4 44/122/4
f 56/1/1 55/75/1 36/127/1 34/99/1
f 68/115/1 67/83/1 83/77/1 81/105/1
f 81/105/1 83/77/1 84/76/1 82/106/1
f 55/75/1 29/82/1 49/128/1 36/127/1
f 50/72/2 52/5/2 37/124/2 38/109/2
f 72/104/2 68/108/2 3/57/2 86/51/2
f 152/129/7 118/130/7 103/131/7 123/132/7
f 148/133/8 112/134/8 103/135/8 118/136/8
f 144/137/9 115/138/9 101/139/9 124/140/9
f 109/141/10 107/142/10 192/143/10 191/144/10
f 128/145/11 109/141/11 191/144/11 99/146/11
f 107/142/12 126/147/12 110/148/12 192/143/12
f 114/149/13 190/150/13 110/151/13 126/147/13
f 113/152/14 189/153/14 190/150/14 114/149/14
f 102/154/15 108/155/15 129/156/15 116/157/15
f 122/158/16 100/159/16 189/153/16 113/152/16
f 116/157/17 129/156/17 131/160/17 115/138/17
f 187/161/18 188/162/18 98/163/18 97/164/18
f 115/138/19 131/160/19 125/165/19 101/139/19
f 120/166/20 187/161/20 97/164/20 127/167/20
f 185/168/21 186/169/21 107/142/21 109/141/21
f 119/170/22 185/168/22 109/141/22 128/145/22
f 183/171/3 184/172/3 186/169/3 185/168/3
f 117/173/23 183/171/23 185/168/23 119/170/23
f 97/164/24 98/163/24 184/172/24 183/171/24
f 127/167/25 97/164/25 183/171/25 117/173/25
f 184/172/26 113/152/26 114/149/26 186/169/26
f 98/163/27 122/158/27 113/152/27 184/172/27
f 106/174/28 104/175/28 121/176/28 138/177/28
f 181/178/29 117/173/29 119/170/29 182/179/29
f 102/180/30 105/181/30 137/182/30 108/183/30
f 105/181/31 106/174/31 138/177/31 137/182/31
f 120/184/32 127/167/32 117/173/32 181/178/32
f 182/179/33 119/170/33 128/145/33 99/185/33
f 186/169/34 114/149/34 126/147/34 107/142/34
f 188/162/35 100/186/35 122/158/35 98/163/35
f 105/187/36 102/154/36 116/157/36 142/188/36
f 142/188/37 116/157/37 115/138/37 144/137/37
f 104/189/38 106/190/38 141/191/38 111/192/38
f 106/190/39 105/187/39 142/188/39 141/191/39
f 111/192/40 141/191/40 143/193/40 112/194/40
f 141/191/41 153/195/41 155/196/41 143/193/41
f 112/194/42 143/193/42 123/197/42 103/198/42
f 143/193/43 144/137/43 124/140/43 123/197/43
f 121/199/44 104/200/44 111/201/44 146/202/44
f 146/202/45 111/201/45 112/134/45 148/133/45
f 151/203/46 179/204/46 180/205/46 152/129/46
f 121/176/47 161/206/47 170/207/47 138/177/47
f 131/160/48 167/208/48 163/209/48 125/165/48
f 125/210/49 163/211/49 179/204/49 151/203/49
f 108/155/50 158/212/50 165/213/50 129/156/50
f 148/133/51 176/214/51 174/215/51 146/202/51
f 138/177/52 170/207/52 169/216/52 137/182/52
f 152/129/53 180/205/53 160/217/53 118/130/53
f 137/182/54 169/216/54 158/218/54 108/183/54
f 129/156/55 165/213/55 167/208/55 131/160/55
f 118/136/56 160/219/56 176/214/56 148/133/56
f 146/202/57 174/215/57 161/220/57 121/199/57
f 125/210/58 151/203/58 124/221/58 101/222/58
f 151/203/59 152/129/59 123/132/59 124/221/59
f 142/188/60 154/223/60 153/195/60 141/191/60
f 144/137/61 156/224/61 154/223/61 142/188/61
f 143/193/62 155/196/62 156/224/62 144/137/62
f 175/225/2 190/150/2 189/153/2 173/226/2
f 118/130/63 149/227/63 130/228/63 152/129/63
f 137/182/1 136/229/1 135/230/1 138/177/1
f 166/231/64 181/178/64 182/179/64 168/232/64
f 177/233/65 191/144/65 192/143/65 178/234/65
f 158/212/66 157/235/66 166/231/66 165/213/66
f 165/213/67 166/231/67 168/232/67 167/208/67
f 167/208/68 168/232/68 164/236/68 163/209/68
f 121/199/69 147/237/69 134/238/69 146/202/69
f 108/183/70 150/239/70 136/229/70 137/182/70
f 173/226/71 189/153/71 100/159/71 162/240/71
f 125/165/72 145/241/72 139/242/72 131/160/72
f 164/243/73 99/146/73 191/144/73 177/233/73
f 138/177/74 135/230/74 147/244/74 121/176/74
f 157/235/75 120/184/75 181/178/75 166/231/75
f 178/234/76 192/143/76 110/148/76 159/245/76
f 170/207/1 161/206/1 162/246/1 172/247/1
f 158/218/1 169/216/1 171/248/1 157/249/1
f 169/216/1 170/207/1 172/247/1 171/248/1
f 172/247/5 188/162/5 187/161/5 171/248/5
f 131/160/2 139/242/2 140/250/2 129/156/2
f 171/248/77 187/161/77 120/166/77 157/249/77
f 162/240/78 161/220/78 174/215/78 173/226/78
f 148/133/79 133/251/79 149/252/79 118/136/79
f 173/226/4 174/215/4 176/214/4 175/225/4
f 159/253/80 110/151/80 190/150/80 175/225/80
f 175/225/81 176/214/81 160/219/81 159/253/81
f 162/246/82 100/186/82 188/162/82 172/247/82
f 178/234/83 159/245/83 160/217/83 180/205/83
f 129/156/84 140/250/84 150/254/84 108/155/84
f 152/129/5 130/228/5 132/255/5 151/203/5
f 164/243/5 177/233/5 179/204/5 163/211/5
f 177/233/85 178/234/85 180/205/85 179/204/85
f 151/203/86 132/255/86 145/256/86 125/210/86
f 146/202/4 134/238/4 133/251/4 148/133/4
f 168/232/87 182/179/87 99/185/87 164/236/87
f 34/99/3 36/127/3 132/255/3 130/228/3
f 36/127/3 49/128/3 145/256/3 132/255/3
f 53/100/3 34/99/3 130/228/3 149/227/3
f 37/124/3 53/123/3 149/252/3 133/251/3
f 38/109/3 37/124/3 133/251/3 134/238/3
f 51/110/3 38/109/3 134/238/3 147/237/3
f 40/102/3 39/101/3 135/230/3 136/229/3
f 54/111/3 40/102/3 136/229/3 150/239/3
f 39/101/3 51/116/3 147/244/3 135/230/3
f 49/114/3 43/113/3 139/242/3 145/241/3
f 43/113/3 44/122/3 140/250/3 139/242/3
f 44/122/3 54/126/3 150/254/3 140/250/3
f 58/95/6 57/68/6 153/195/6 154/223/6
f 59/67/6 60/96/6 156/224/6 155/196/6
f 57/68/6 59/67/6 155/196/6 153/195/6
f 60/96/6 58/95/6 154/223/6 156/224/6
o Cube.001
v -0.201100 -1.695576 3.503627
v -0.201100 -1.695576 -3.563762
v -0.201100 1.898624 3.503627
v -0.201100 1.898624 -3.563762
v -0.191100 -1.695576 3.503627
v -0.191100 -1.695576 -3.563762
v -0.191100 1.898624 3.503627
v -0.191100 1.898624 -3.563762
vt 0.397506 0.008597
vt 0.614768 0.008597
vt 0.614768 0.243401
vt 0.397506 0.243401
vt 0.397506 0.008597
vt 0.397506 0.243401
vt 0.614768 0.243401
vt 0.614768 0.008597
vn -1.0000 0.0000 0.0000
vn 1.0000 0.0000 0.0000
vn 0.0000 -1.0000 0.0000
vn 0.0000 1.0000 0.0000
vn 0.0000 0.0000 1.0000
vn 0.0000 0.0000 -1.0000
usemtl Material
s off
f 193/257/88 195/258/88 196/259/88 194/260/88
f 197/261/89 198/262/89 200/263/89 199/264/89
f 193/257/90 194/260/90 198/262/90 197/261/90
f 196/259/91 195/258/91 199/264/91 200/263/91
f 195/258/92 193/257/92 197/261/92 199/264/92
f 194/260/93 196/259/93 200/263/93 198/262/93
